<?xml version="1.0" encoding="UTF-8"?>
<svg width="728px" height="395px" viewBox="0 0 728 395" version="1.1" xmlns="http://www.w3.org/2000/svg" xmlns:xlink="http://www.w3.org/1999/xlink">
    <title>编组</title>
    <g id="页面-1" stroke="none" stroke-width="1" fill="none" fill-rule="evenodd">
        <g id="编组" transform="translate(0.000000, 0.000000)">
            <polygon id="Fill-1" fill="#0095FF" points="0 197.501876 122.692121 319.705746 122.692121 320.647363 123.637471 320.647363 123.98774 321 123.98774 320.647363 247 320.647363 123.509416 197.648183 246.348424 75.2942543 123.98774 75.2942543 123.98774 74"></polygon>
            <polygon id="Fill-2" fill="#0095FF" points="606.042257 75.2942347 487.637184 75.2942347 504.437353 92.3068558 608.461333 197.646305 503.885374 303.544713 487 320.643617 606.042257 320.643617 606.042257 321 606.39419 320.643617 607.324034 320.643617 607.324034 319.702014 728 197.5 606.042257 74"></polygon>
            <path d="M364.503776,0 L251.408745,113.089093 L167,197.5 L251.408745,281.910907 L364.503776,395 L475.884502,283.617627 L562,197.5 L475.884502,111.378597 L364.503776,0 Z M283.12716,197.492448 L364.5,116.121164 L445.876616,197.492448 L364.5,278.863732 L283.12716,197.492448 Z" id="Fill-3" fill="#00EA99"></path>
        </g>
    </g>
</svg>