<?xml version="1.0" encoding="UTF-8"?>
<svg width="36px" height="20px" viewBox="0 0 36 20" version="1.1" xmlns="http://www.w3.org/2000/svg" xmlns:xlink="http://www.w3.org/1999/xlink">
    <title>编组</title>
    <g id="页面-1" stroke="none" stroke-width="1" fill="none" fill-rule="evenodd">
        <g id="编组">
            <polygon id="Fill-1" fill="#0095FF" points="0 10.5000987 5.96075083 16.9318814 5.96075083 16.9814401 6.00667876 16.9814401 6.02369589 17 6.02369589 16.9814401 12 16.9814401 6.00045745 10.5077991 11.9683445 4.06811865 6.02369589 4.06811865 6.02369589 4"></polygon>
            <polygon id="Fill-2" fill="#0095FF" points="29.9274153 4.06811761 24.031727 4.06811761 24.8682499 4.96351873 30.0478672 10.5077003 24.8407655 16.0813007 24 16.981243 29.9274153 16.981243 29.9274153 17 29.9449389 16.981243 29.9912382 16.981243 29.9912382 16.9316849 36 10.5 29.9274153 4"></polygon>
            <path d="M18.0001912,0 L12.2738605,5.72603002 L8,10 L12.2738605,14.27397 L18.0001912,20 L23.6397216,14.3603862 L28,10 L23.6397216,5.63942262 L18.0001912,0 Z M13.8798562,9.99961763 L18,5.87955262 L22.120335,9.99961763 L18,14.1196826 L13.8798562,9.99961763 Z" id="Fill-3" fill="#00EA99"></path>
        </g>
    </g>
</svg>